<svg width="32" height="32" viewBox="0 0 32 32" fill="none" xmlns="http://www.w3.org/2000/svg">
<path d="M27.7487 1H4.25129C2.45566 1 1 2.45566 1 4.25129V27.7487C1 29.5444 2.45566 31 4.25129 31H27.7487C29.5443 31 31 29.5444 31 27.7487V4.25129C31 2.45566 29.5443 1 27.7487 1Z" fill="white" stroke="#231F20" stroke-miterlimit="10"/>
<path d="M24.5107 5.64355H7.48841C6.46952 5.64355 5.64355 6.46952 5.64355 7.4884V24.5107C5.64355 25.5296 6.46952 26.3556 7.48841 26.3556H24.5107C25.5296 26.3556 26.3556 25.5296 26.3556 24.5107V7.4884C26.3556 6.46952 25.5296 5.64355 24.5107 5.64355Z" fill="#DF1F26" stroke="#231F20" stroke-miterlimit="10" stroke-linecap="round"/>
<path d="M21.679 9.45947H10.3187C9.84417 9.45947 9.45947 9.84417 9.45947 10.3187V21.679C9.45947 22.1536 9.84417 22.5383 10.3187 22.5383H21.679C22.1536 22.5383 22.5383 22.1536 22.5383 21.679V10.3187C22.5383 9.84417 22.1536 9.45947 21.679 9.45947Z" fill="white" stroke="#231F20" stroke-miterlimit="10"/>
<path d="M18.04 12.3318H13.958C13.5459 12.3318 13.2119 12.6656 13.2119 13.0773C13.2119 13.489 13.5459 13.8228 13.958 13.8228H18.04C18.452 13.8228 18.786 13.489 18.786 13.0773C18.786 12.6656 18.452 12.3318 18.04 12.3318Z" fill="#DF1F26" stroke="#231F20" stroke-miterlimit="10" stroke-linecap="round"/>
<path d="M18.04 18.1763H13.958C13.5459 18.1763 13.2119 18.51 13.2119 18.9218C13.2119 19.3335 13.5459 19.6673 13.958 19.6673H18.04C18.452 19.6673 18.786 19.3335 18.786 18.9218C18.786 18.51 18.452 18.1763 18.04 18.1763Z" fill="#DF1F26" stroke="#231F20" stroke-miterlimit="10" stroke-linecap="round"/>
</svg>
