<svg width="32" height="38" viewBox="0 0 32 38" fill="none" xmlns="http://www.w3.org/2000/svg">
<path d="M20.4958 34.9123C21.0648 34.4783 21.56 33.956 21.968 33.3717C22.8498 32.1068 23.2524 30.536 23.0887 29.0099C23.0001 28.1909 22.7733 27.3968 22.3921 26.6622C22.0324 25.9684 21.5426 25.3432 20.9897 24.7893C19.8731 23.6695 18.4934 22.7897 17.0238 22.1843C16.1971 21.844 15.3275 21.5974 14.4417 21.4681C13.7062 21.3613 12.9466 21.3309 12.2112 21.4523C12.4944 21.207 12.8782 21.0764 13.2405 20.9907C13.8539 20.8469 14.49 20.7994 15.1141 20.7163C16.6011 20.5185 18.0854 20.2929 19.5644 20.041C20.5696 19.8695 21.5721 19.6862 22.572 19.491C22.5518 19.6031 22.5411 19.7165 22.5451 19.8326C22.5545 20.0753 22.5867 20.3206 22.6458 20.5567C22.7437 20.9445 22.9504 21.3349 23.341 21.5024C23.7114 21.6607 24.1637 21.6013 24.4965 21.3824C24.8575 21.1437 25.0843 20.7519 25.1836 20.3417C25.2467 20.0806 25.2615 19.8089 25.248 19.5411C25.2413 19.3987 25.2252 19.2575 25.2078 19.1151C25.2011 19.0663 25.197 19.0122 25.1903 18.9581C26.1056 18.7656 27.0182 18.5625 27.9255 18.3369C27.9335 18.4121 27.9456 18.486 27.9483 18.5519C27.9617 18.8104 27.9724 19.0689 27.9818 19.3275C27.9993 19.8247 28.01 20.3233 28.0208 20.8205C28.0261 21.0777 28.0302 21.3336 28.0328 21.5908C28.0302 21.6079 28.0261 21.6238 28.0248 21.6409C28.0114 21.782 28.0141 21.9258 28.0073 22.0682C27.9966 22.3268 27.9832 22.584 27.9671 22.8425C27.9349 23.3674 27.8919 23.8924 27.8329 24.4147C27.7188 25.4501 27.5309 26.4802 27.2289 27.4786C26.6183 29.5019 25.452 31.2944 24.2965 33.0538C23.7557 33.8769 23.1611 34.7039 22.3411 35.2816C21.5694 35.825 20.6394 36.1086 19.6932 35.9147C19.4785 35.8711 19.2651 35.8039 19.0611 35.7168C19.5859 35.552 20.0609 35.2446 20.4971 34.9123H20.4958Z" fill="white"/>
<path d="M19.1214 31.7257C19.2153 31.5701 19.2972 31.4105 19.3696 31.2483C19.5951 30.9001 19.724 30.4978 19.7548 30.0823C19.7964 29.5244 19.6193 28.9348 19.3656 28.4415C19.3522 28.4138 19.3361 28.3888 19.3213 28.3611C19.1281 27.9865 18.8623 27.6475 18.5376 27.3758C17.9699 26.8535 17.2666 26.4591 16.5768 26.1373C15.432 25.6045 14.2013 25.2325 13.1612 24.5031C12.6767 24.1628 12.25 23.7434 11.9896 23.2105C11.7628 22.7436 11.685 22.1738 11.9775 21.7175C11.9815 21.7122 11.9856 21.7069 11.9896 21.7017C12.6767 21.7096 13.3599 21.7333 14.0416 21.823C14.7945 21.9219 15.5367 22.1119 16.2493 22.3704C17.6706 22.8834 19.0033 23.6801 20.1212 24.6851C21.2378 25.6889 22.0793 26.9392 22.3786 28.4112C22.6644 29.8159 22.4524 31.3327 21.7465 32.5897C21.3787 33.2425 20.8942 33.8229 20.3198 34.3096C19.7843 34.7646 19.1576 35.0719 18.5711 35.4505C18.5161 35.4135 18.4637 35.374 18.4114 35.3331C18.088 35.0719 17.7927 34.7066 17.7712 34.2779C17.7457 33.778 18.0343 33.3243 18.3054 32.9234C18.5751 32.5224 18.8717 32.1386 19.12 31.7244L19.1214 31.7257Z" fill="#DF1F26"/>
<path d="M30.0688 16.981C29.5964 17.3147 29.0502 17.5231 28.4959 17.684C27.8598 17.8673 27.2075 18.0045 26.562 18.1509C25.8399 18.3144 25.1166 18.4727 24.3918 18.6244C22.9424 18.9278 21.4876 19.2087 20.0288 19.4633C18.5512 19.7218 17.0682 19.9539 15.5825 20.1584C14.9115 20.2507 14.2351 20.3193 13.5667 20.4248C13.0366 20.5079 12.4783 20.6411 12.0381 20.9563C11.5724 21.2913 11.2892 21.7925 11.2798 22.3636C11.2718 22.9361 11.516 23.5032 11.8569 23.9569C12.6112 24.9594 13.8083 25.5305 14.9423 26.0145C16.067 26.4959 17.2775 26.9325 18.1861 27.7727C18.7686 28.3121 19.1846 29.0626 19.2477 29.8474C19.245 29.9661 19.237 30.0848 19.2222 30.2049C19.1591 30.7047 18.9471 31.1624 18.6827 31.5884C18.4196 32.0131 18.111 32.4088 17.8385 32.8283C17.5674 33.2464 17.3191 33.7212 17.3272 34.229C17.342 35.2116 18.272 35.9054 19.1336 36.2088C20.0784 36.5411 21.1051 36.4514 21.9963 36.0135C22.9129 35.5625 23.6215 34.8067 24.216 34.0008C24.8535 33.1382 25.4293 32.2189 25.9889 31.3062C26.5539 30.3842 27.0666 29.4293 27.4397 28.4163C28.1872 26.3878 28.3952 24.2115 28.4476 22.0695C28.4503 21.9455 28.457 21.8202 28.4556 21.6963C28.4543 21.5564 28.4154 21.4219 28.3845 21.2861C28.3805 21.2676 28.3724 21.2518 28.363 21.2386C28.3657 21.1093 28.3684 20.9801 28.3711 20.8508C28.3778 20.343 28.3697 19.8365 28.3536 19.3287C28.3456 19.0794 28.3362 18.8315 28.3268 18.5822C28.3228 18.4688 28.3174 18.3567 28.312 18.2432C28.5174 18.1891 28.7241 18.1298 28.928 18.0625C28.6959 19.6914 29.3401 21.2755 29.7252 22.8424C29.9333 23.6839 30.0675 24.5531 29.9494 25.4184C29.8272 26.3139 29.4662 27.1633 29.0166 27.9442C28.0611 29.6034 26.6828 30.9791 25.7071 32.6265C25.2602 33.3809 24.8804 34.1749 24.3959 34.9069C23.9181 35.6284 23.3236 36.2562 22.5572 36.6862C22.1519 36.9144 21.7171 37.0859 21.2689 37.198C20.7683 37.2877 20.2516 37.2916 19.7335 37.2085C18.5485 37.0173 17.4627 36.5016 16.4414 35.8988C15.3611 35.2617 14.3277 34.5614 13.203 33.9995C12.1025 33.4495 10.9805 32.947 9.92433 32.3165C8.99428 31.7612 8.17562 31.0886 7.49519 30.2655C7.70992 30.2853 7.92599 30.2814 8.14206 30.251C8.87215 30.1455 9.54587 29.6984 9.78744 28.994C10.0559 28.2106 9.76329 27.3414 9.56063 26.579C9.32309 25.6874 9.07346 24.7984 8.8131 23.9134C8.29909 22.1592 7.74749 20.4169 7.19188 18.6758C6.9087 17.7908 6.62553 16.9058 6.33027 16.0234C6.05649 15.207 5.79075 14.376 5.43779 13.5886C5.13717 12.9212 4.67013 12.3132 3.93199 12.0929C3.38576 11.9294 2.78317 11.9874 2.26245 12.2156C2.33627 11.7724 2.36042 11.324 2.398 10.8742C2.44632 10.3044 2.51879 9.73726 2.64226 9.17934C2.85296 8.23101 3.21398 7.29324 3.8206 6.51769C4.39232 5.78699 5.17206 5.23302 6.07796 4.9811C6.99728 4.72523 7.98101 4.77666 8.89362 5.03254C9.35529 5.16312 9.79952 5.34513 10.2182 5.57727C10.6558 5.81996 11.0544 6.11936 11.4556 6.41481C11.8609 6.71289 12.2716 7.00966 12.7266 7.23124C13.2151 7.46866 13.7372 7.59792 14.2793 7.64144C14.8336 7.68629 15.3919 7.64144 15.9435 7.57813C16.5313 7.50954 17.1178 7.42645 17.7043 7.34995L21.3239 6.87381L24.973 6.39371C25.9943 6.25917 27.0827 6.14838 28.0168 5.68938C28.2463 5.57595 28.465 5.44406 28.6731 5.29501C28.6757 5.29238 28.6784 5.28974 28.6811 5.2871C28.8905 5.4612 29.0904 5.6485 29.2716 5.85293C29.9185 6.57704 30.2849 7.49899 30.5197 8.42358C30.7828 9.45765 30.9277 10.526 31.0297 11.5864C31.0901 12.2064 31.1264 12.8276 31.1505 13.4488C31.1626 13.7601 31.1693 14.0714 31.1706 14.3826C31.1706 14.62 31.1492 14.8641 31.18 15.1001C31.1478 15.3019 31.1009 15.5024 31.0324 15.699C30.8553 16.2133 30.5197 16.6671 30.0715 16.9849L30.0688 16.981Z" fill="white"/>
<path d="M13.4285 5.21478C13.5265 5.24644 13.6379 5.26095 13.7291 5.27941C13.9197 5.31766 14.1103 5.35723 14.2995 5.39812C14.678 5.48121 15.0631 5.55376 15.4523 5.51287C16.1744 5.43637 16.8105 5.07497 17.4158 4.70435C17.6077 4.8402 17.7902 4.98792 17.9607 5.14356C17.2292 5.6197 16.3931 5.93098 15.5221 6.04441C15.0524 6.10508 14.5773 6.10772 14.1063 6.05496C13.8714 6.02858 13.6379 5.98374 13.4084 5.92702C13.3158 5.9046 13.1561 5.89009 13.0782 5.83337C13.0326 5.8004 13.0635 5.78589 13.0957 5.73445C13.1413 5.66191 13.1883 5.58937 13.2352 5.51682C13.2997 5.41658 13.3641 5.31502 13.4285 5.21478Z" fill="white"/>
<path d="M28.6797 21.1715C28.6851 21.186 28.6891 21.2005 28.6931 21.2163L28.7092 21.2836C28.7388 21.405 28.771 21.5408 28.7723 21.6912C28.7723 21.7848 28.771 21.8798 28.7669 21.9747L28.7643 22.0763C28.72 23.8978 28.5643 26.2785 27.7376 28.522C27.5135 29.1314 27.2289 29.7526 26.8625 30.4266C26.9323 30.3356 27.0021 30.2459 27.0719 30.1562C27.6557 29.4031 28.2583 28.6236 28.7374 27.7927C29.2353 26.9274 29.5279 26.1374 29.6312 25.3777C29.7279 24.6746 29.6608 23.9162 29.4138 22.9165C29.3293 22.5749 29.23 22.224 29.1347 21.8837C28.9669 21.2889 28.7965 20.6835 28.6851 20.0688C28.6891 20.3458 28.6891 20.6043 28.6851 20.8549C28.6851 20.9446 28.6824 21.033 28.6797 21.1227V21.1728V21.1715Z" fill="#DF1F26"/>
<path d="M4.40293 26.8864C4.96258 27.8862 5.75977 29.0772 6.98239 29.4597C7.63598 29.6641 8.28018 29.5876 8.70427 29.2553C9.10958 28.9387 9.2156 28.4177 9.0371 27.6132C8.88679 26.9379 8.69085 26.2546 8.50027 25.5938L8.38217 25.181C8.16073 24.4015 7.91916 23.5877 7.64672 22.6961C7.25484 21.4141 6.83879 20.1149 6.43617 18.8592C6.31136 18.4701 6.18655 18.0811 6.06174 17.6906C5.81748 16.927 5.54101 16.0604 5.2471 15.2189C5.11557 14.843 4.98003 14.4526 4.82837 14.0793C4.72772 13.8314 4.5868 13.5135 4.37878 13.2576C4.03923 12.8369 3.47154 12.6601 2.89847 12.796C2.36701 12.9213 1.89595 13.2998 1.57251 13.8604C1.26249 14.3959 1.10815 15.0672 1.09876 15.9114C1.09071 16.6236 1.16183 17.4005 1.31617 18.2881C1.48259 19.2483 1.73892 20.2349 2.09994 21.3046C2.15765 21.4444 2.23012 21.6277 2.2932 21.8163C2.34286 21.9654 2.39385 22.1157 2.44351 22.2661C2.52001 22.4692 2.60322 22.6829 2.68911 22.8939C2.97497 23.6048 3.29036 24.3408 3.65272 25.1467C3.87684 25.6466 4.09426 26.1584 4.30362 26.6516L4.40293 26.8851V26.8864Z" fill="white"/>
<path d="M23.145 19.6982C23.149 19.7523 23.1531 19.8064 23.1571 19.8618C23.1719 20.0741 23.2041 20.272 23.2564 20.45C23.341 20.7402 23.4725 20.9103 23.6456 20.9539C23.6926 20.9657 23.7409 20.971 23.7906 20.9684C23.7302 20.8602 23.6832 20.7323 23.6483 20.5859C23.6067 20.4105 23.5812 20.235 23.5557 20.0649C23.5463 20.0003 23.5356 19.9343 23.5248 19.8697L23.4859 19.6296C23.3718 19.6521 23.2591 19.6758 23.145 19.6982Z" fill="#DF1F26"/>
<path d="M24.4038 19.4422C24.44 19.6954 24.4763 19.9487 24.5125 20.2019L24.5165 20.2296C24.5165 20.2296 24.5165 20.2389 24.5179 20.2428C24.5394 20.1624 24.5528 20.0766 24.5608 19.9882C24.5756 19.8181 24.5716 19.6295 24.5488 19.4119C24.5004 19.4224 24.4521 19.4317 24.4038 19.4422Z" fill="#DF1F26"/>
<path d="M12.046 5.92433C12.4339 6.20659 12.8204 6.47038 13.2458 6.64844C13.6592 6.82122 14.137 6.90695 14.7033 6.90959C15.2455 6.91487 15.7904 6.84628 16.3487 6.77242L18.7107 6.45851C18.5282 6.21582 18.3578 6.00742 18.1887 5.81881C17.7606 6.07469 17.3016 6.28045 16.8184 6.43213C15.7313 6.77374 14.5691 6.83045 13.4579 6.59568C13.4243 6.58908 13.3881 6.58117 13.3492 6.57458C13.1116 6.52973 12.8164 6.47302 12.607 6.29364C12.1762 5.92301 12.4956 5.45083 12.6312 5.24902C12.6473 5.22528 12.662 5.20418 12.6755 5.18176L12.7023 5.14087C12.5627 5.28332 12.4258 5.44027 12.293 5.61174C12.2111 5.71594 12.1292 5.81881 12.0447 5.92169L12.046 5.92433Z" fill="white"/>
<path d="M14.9395 3.19273C15.5408 3.19273 16.1675 3.32198 16.7714 3.5739C17.9149 4.05005 18.9778 4.9931 19.8569 6.30942L21.8592 6.04431C22.2377 5.99419 22.6175 5.94539 22.996 5.89527C23.7999 5.79107 24.632 5.68292 25.4479 5.56685C25.4506 5.56685 25.4533 5.56685 25.456 5.56685C24.9728 4.85989 24.3823 4.2136 23.6938 3.64117C23.6643 3.62271 23.6375 3.60028 23.6133 3.57522C23.3664 3.37474 23.1127 3.18613 22.8577 3.01467C20.5574 1.47149 17.5592 0.78431 14.4121 1.07976C12.815 1.23012 11.4542 1.69439 10.3671 2.46071C9.90004 2.79044 9.45448 3.17426 9.02368 3.54621C8.919 3.6359 8.81431 3.7269 8.70963 3.81527C8.65326 3.86408 8.59556 3.91288 8.53785 3.963C8.46538 4.02631 8.39156 4.08962 8.31641 4.15293C8.63985 4.20305 8.96194 4.27691 9.27867 4.37583C9.78329 4.53279 10.2678 4.74514 10.716 5.00629C10.9267 5.12896 11.1294 5.26481 11.3173 5.3967C11.4193 5.2292 11.5226 5.08015 11.6327 4.94034C11.9132 4.58554 12.1923 4.29801 12.4876 4.06192C13.0928 3.57522 13.7813 3.29033 14.5302 3.21515C14.6644 3.20196 14.7999 3.19536 14.9368 3.19536L14.9395 3.19273Z" fill="#DF1F26"/>
<path d="M13.533 5.63548C13.7423 5.6856 13.9463 5.72121 14.1436 5.74364C14.2993 5.76078 14.455 5.77265 14.6106 5.77661C14.4778 5.75419 14.3516 5.72649 14.2295 5.70011C14.0416 5.65922 13.8537 5.61965 13.6658 5.58272C13.643 5.57877 13.6189 5.57349 13.5934 5.56953C13.588 5.56953 13.5826 5.56821 13.5772 5.56689L13.533 5.63548Z" fill="white"/>
<path d="M25.625 4.1106C25.9686 4.50892 26.2786 4.92967 26.5497 5.36888C27.0006 5.26732 27.3898 5.1473 27.7361 4.99957C27.4583 4.82943 27.1617 4.67643 26.8503 4.54058C26.4786 4.37834 26.0759 4.23722 25.625 4.1106Z" fill="#010101"/>
<path d="M14.1049 4.74371C14.1384 4.75031 14.172 4.75822 14.2042 4.76482L14.3236 4.78988C14.6712 4.8611 15 4.92837 15.3248 4.90199C15.7207 4.87033 16.0978 4.70942 16.4575 4.51026C15.914 4.25966 15.2121 4.06973 14.4444 4.18975C14.4323 4.19107 14.4202 4.19371 14.4082 4.19503C14.3813 4.25702 14.3491 4.31373 14.3223 4.36385C14.3075 4.39023 14.2927 4.41661 14.2807 4.44167C14.227 4.54983 14.1653 4.64875 14.1035 4.74371H14.1049Z" fill="white"/>
<path d="M5.0256 22.1027C4.67398 20.9433 4.25257 19.8011 3.81774 18.6708C3.72379 18.4268 3.63119 18.1828 3.53053 17.9414C3.50503 17.8543 3.48087 17.7686 3.45135 17.6829C3.36814 17.4323 3.28493 17.179 3.17891 16.9377C3.09436 16.7464 2.96284 16.567 2.75213 16.5011C2.55619 16.4391 2.33206 16.4971 2.21933 16.6739C2.10391 16.8559 2.14417 17.0828 2.18712 17.2793C2.62061 19.2788 3.60032 21.1069 4.36262 22.9943C4.57466 23.5193 4.77195 24.0508 4.93702 24.5916C5.07794 25.0519 5.17725 25.7048 5.753 25.8222C5.88318 25.8485 5.99592 25.7443 5.96505 25.6138C5.68992 24.4346 5.37588 23.2634 5.02426 22.104L5.0256 22.1027Z" fill="#DF1F26"/>
<path d="M23.7448 19.2588C23.7757 19.4461 23.8065 19.6321 23.8374 19.8194C23.875 20.0502 23.9032 20.2863 23.9569 20.5145C23.9998 20.6965 24.0817 20.9141 24.2521 21.0196C24.287 21.0407 24.3219 21.0579 24.3595 21.0724C24.1367 21.2412 23.8455 21.3243 23.5663 21.2544C23.2227 21.1674 23.0429 20.8482 22.9516 20.5343C22.8899 20.3219 22.855 20.1016 22.8402 19.8814C22.8309 19.7363 22.8174 19.5925 22.8054 19.4474C23.1194 19.3855 23.4321 19.3221 23.7448 19.2588ZM24.8158 19.0386C24.8332 19.1428 24.8493 19.2483 24.8614 19.3538C24.8856 19.5741 24.8963 19.7956 24.8775 20.0159C24.8493 20.3325 24.742 20.6596 24.5339 20.9075C24.4575 20.8614 24.3903 20.7994 24.3407 20.7281C24.2441 20.5897 24.2239 20.409 24.1998 20.2467C24.1488 19.8972 24.0991 19.5477 24.0495 19.1982C24.3044 19.1454 24.5608 19.0926 24.8158 19.0399V19.0386ZM20.4957 34.9122C21.0647 34.4783 21.5599 33.956 21.9679 33.3717C22.8496 32.1068 23.2523 30.5359 23.0885 29.0099C23 28.1908 22.7731 27.3968 22.392 26.6621C22.0323 25.9684 21.5425 25.3432 20.9895 24.7892C19.8729 23.6694 18.4933 22.7897 17.0237 22.1843C16.197 21.844 15.3273 21.5973 14.4416 21.4681C13.7061 21.3612 12.9465 21.3309 12.2111 21.4523C12.4942 21.2069 12.8781 21.0764 13.2404 20.9906C13.8538 20.8469 14.4899 20.7994 15.114 20.7163C16.601 20.5184 18.0853 20.2929 19.5643 20.041C20.5695 19.8695 21.572 19.6862 22.5718 19.491C22.5517 19.6031 22.541 19.7165 22.545 19.8326C22.5544 20.0753 22.5866 20.3206 22.6457 20.5567C22.7436 20.9445 22.9503 21.3349 23.3408 21.5024C23.7113 21.6607 24.1635 21.6013 24.4964 21.3824C24.8574 21.1436 25.0842 20.7519 25.1835 20.3417C25.2466 20.0805 25.2613 19.8088 25.2479 19.5411C25.2412 19.3986 25.2251 19.2575 25.2077 19.1151C25.201 19.0663 25.1969 19.0122 25.1902 18.9581C26.1055 18.7655 27.0181 18.5624 27.9254 18.3369C27.9334 18.4121 27.9455 18.4859 27.9482 18.5519C27.9616 18.8104 27.9723 19.0689 27.9817 19.3274C27.9992 19.8247 28.0099 20.3232 28.0206 20.8205C28.026 21.0777 28.03 21.3336 28.0327 21.5907C28.03 21.6079 28.026 21.6237 28.0247 21.6409C28.0112 21.782 28.0139 21.9258 28.0072 22.0682C27.9965 22.3267 27.9831 22.5839 27.967 22.8424C27.9347 23.3674 27.8918 23.8923 27.8328 24.4146C27.7187 25.45 27.5308 26.4801 27.2288 27.4786C26.6182 29.5019 25.4519 31.2943 24.2964 33.0538C23.7555 33.8768 23.161 34.7038 22.341 35.2815C21.5693 35.8249 20.6393 36.1085 19.6931 35.9146C19.4784 35.8711 19.265 35.8038 19.061 35.7168C19.5857 35.5519 20.0608 35.2446 20.497 34.9122H20.4957ZM19.1214 31.7256C19.2153 31.57 19.2972 31.4104 19.3697 31.2482C19.5951 30.9 19.724 30.4977 19.7548 30.0822C19.7964 29.5243 19.6193 28.9347 19.3656 28.4414C19.3522 28.4137 19.3361 28.3887 19.3213 28.361C19.1281 27.9864 18.8624 27.6474 18.5376 27.3757C17.9699 26.8534 17.2666 26.459 16.5768 26.1372C15.432 25.6043 14.2013 25.2324 13.1612 24.503C12.6768 24.1627 12.25 23.7433 11.9896 23.2104C11.7628 22.7435 11.685 22.1737 11.9775 21.7174C11.9816 21.7121 11.9856 21.7068 11.9896 21.7015C12.6768 21.7095 13.3599 21.7332 14.0416 21.8229C14.7945 21.9218 15.5367 22.1117 16.2493 22.3702C17.6706 22.8833 19.0033 23.68 20.1212 24.685C21.2378 25.6888 22.0793 26.9391 22.3786 28.4111C22.6644 29.8158 22.4524 31.3326 21.7465 32.5895C21.3787 33.2424 20.8943 33.8228 20.3198 34.3095C19.7844 34.7645 19.1576 35.0718 18.5711 35.4504C18.5161 35.4134 18.4638 35.3739 18.4114 35.333C18.088 35.0718 17.7927 34.7065 17.7713 34.2778C17.7458 33.7779 18.0343 33.3242 18.3054 32.9232C18.5752 32.5223 18.8718 32.1385 19.12 31.7243L19.1214 31.7256ZM30.0686 16.981C29.5962 17.3147 29.05 17.5231 28.4957 17.684C27.8596 17.8673 27.2074 18.0045 26.5618 18.1509C25.8398 18.3145 25.1164 18.4727 24.3917 18.6244C22.9422 18.9278 21.4874 19.2087 20.0286 19.4633C18.551 19.7218 17.068 19.9539 15.5823 20.1584C14.9113 20.2507 14.2349 20.3193 13.5665 20.4248C13.0364 20.5079 12.4781 20.6411 12.0379 20.9563C11.5722 21.2913 11.2891 21.7925 11.2797 22.3637C11.2716 22.9361 11.5159 23.5032 11.8567 23.957C12.611 24.9594 13.8081 25.5305 14.9422 26.0145C16.0668 26.496 17.2774 26.9325 18.1859 27.7727C18.7684 28.3122 19.1845 29.0626 19.2475 29.8474C19.2448 29.9661 19.2368 30.0848 19.222 30.2049C19.159 30.7047 18.9469 31.1624 18.6825 31.5884C18.4195 32.0132 18.1108 32.4088 17.8384 32.8283C17.5673 33.2464 17.319 33.7212 17.327 34.229C17.3418 35.2116 18.2718 35.9054 19.1335 36.2088C20.0783 36.5411 21.105 36.4514 21.9961 36.0136C22.9127 35.5625 23.6213 34.8067 24.2159 34.0008C24.8534 33.1382 25.4291 32.2189 25.9887 31.3062C26.5538 30.3842 27.0664 29.4293 27.4395 28.4164C28.1871 26.3878 28.3951 24.2115 28.4474 22.0695C28.4501 21.9455 28.4568 21.8202 28.4555 21.6963C28.4541 21.5565 28.4152 21.4219 28.3843 21.2861C28.3803 21.2676 28.3723 21.2518 28.3629 21.2386C28.3656 21.1093 28.3682 20.9801 28.3709 20.8508C28.3776 20.343 28.3696 19.8365 28.3535 19.3287C28.3454 19.0795 28.336 18.8315 28.3266 18.5822C28.3226 18.4688 28.3172 18.3567 28.3119 18.2432C28.5172 18.1892 28.7239 18.1298 28.9279 18.0625C28.6957 19.6914 29.3399 21.2755 29.7251 22.8424C29.9331 23.6839 30.0673 24.5531 29.9492 25.4184C29.8271 26.3139 29.4661 27.1633 29.0165 27.9442C28.0609 29.6034 26.6826 30.9791 25.7069 32.6265C25.26 33.3809 24.8802 34.1749 24.3957 34.9069C23.9179 35.6284 23.3234 36.2562 22.5571 36.6862C22.1518 36.9144 21.7169 37.0859 21.2687 37.198C20.7681 37.2877 20.2514 37.2916 19.7334 37.2085C18.5483 37.0173 17.4626 36.5016 16.4413 35.8988C15.3609 35.2617 14.3275 34.5614 13.2028 33.9995C12.1023 33.4495 10.9804 32.947 9.92417 32.3165C8.99411 31.7612 8.17545 31.0886 7.49502 30.2655C7.70975 30.2853 7.92583 30.2814 8.1419 30.251C8.87199 30.1455 9.54571 29.6984 9.78728 28.9941C10.0557 28.2106 9.76312 27.3414 9.56047 26.579C9.32292 25.6874 9.0733 24.7985 8.81294 23.9134C8.29892 22.1592 7.74733 20.4169 7.19171 18.6759C6.90854 17.7908 6.62536 16.9058 6.33011 16.0234C6.05632 15.207 5.79059 14.376 5.43763 13.5886C5.137 12.9212 4.66996 12.3132 3.93182 12.0929C3.3856 11.9294 2.78301 11.9874 2.26229 12.2156C2.3361 11.7724 2.36026 11.324 2.39784 10.8742C2.44615 10.3044 2.51862 9.73727 2.6421 9.17935C2.8528 8.23102 3.21382 7.29324 3.82043 6.51769C4.39215 5.78699 5.1719 5.23303 6.0778 4.98111C6.99711 4.72523 7.98085 4.77667 8.89346 5.03255C9.35513 5.16313 9.79935 5.34514 10.2181 5.57728C10.6556 5.81997 11.0542 6.11937 11.4555 6.41482C11.8608 6.7129 12.2714 7.00967 12.7264 7.23125C13.2149 7.46866 13.737 7.59792 14.2792 7.64145C14.8335 7.68629 15.3918 7.64145 15.9434 7.57814C16.5312 7.50955 17.1177 7.42646 17.7042 7.34996L21.3237 6.87381L24.9728 6.39371C25.9941 6.25918 27.0825 6.14839 28.0166 5.68939C28.2461 5.57596 28.4649 5.44406 28.6729 5.29502C28.6756 5.29238 28.6783 5.28974 28.6809 5.28711C28.8903 5.46121 29.0903 5.6485 29.2715 5.85294C29.9183 6.57705 30.2847 7.499 30.5196 8.42359C30.7826 9.45765 30.9276 10.526 31.0296 11.5864C31.09 12.2064 31.1262 12.8276 31.1504 13.4488C31.1624 13.7601 31.1691 14.0714 31.1705 14.3826C31.1705 14.6201 31.149 14.8641 31.1799 15.1002C31.1477 15.302 31.1007 15.5024 31.0323 15.699C30.8551 16.2134 30.5196 16.6671 30.0713 16.9849L30.0686 16.981ZM4.11703 27.0209C3.86875 26.4366 3.62315 25.851 3.36279 25.2733C3.02593 24.5254 2.70115 23.7697 2.39381 23.0099C2.30792 22.7963 2.22471 22.5813 2.14285 22.365C2.09185 22.2146 2.04085 22.0643 1.99119 21.9139C1.93482 21.7451 1.86906 21.5789 1.80196 21.4127C1.46241 20.409 1.18461 19.3841 1.00343 18.3408C0.865196 17.5402 0.772589 16.7212 0.781984 15.9087C0.790036 15.149 0.910826 14.3747 1.29734 13.706C1.63152 13.127 2.15358 12.6508 2.82461 12.4926C3.49565 12.3343 4.19219 12.5255 4.62836 13.0637C4.84443 13.3314 4.99609 13.6493 5.12358 13.9645C5.27658 14.3444 5.41213 14.7308 5.54768 15.1173C5.83488 15.939 6.10061 16.7673 6.365 17.5969C6.8978 19.2654 7.43865 20.9313 7.95133 22.6063C8.20498 23.4347 8.45192 24.2643 8.68812 25.0979C8.91896 25.909 9.16456 26.7241 9.34708 27.5472C9.50141 28.2423 9.52289 29.0152 8.90285 29.4992C8.3365 29.9411 7.55273 29.9635 6.88706 29.7564C5.58928 29.3502 4.75854 28.171 4.11703 27.0222V27.0209ZM13.737 4.14225C13.639 4.26492 13.5571 4.39945 13.4726 4.53134C13.2968 4.80437 13.121 5.07739 12.9452 5.35042C12.8136 5.55485 12.5667 5.84634 12.8177 6.06133C12.9908 6.21038 13.3075 6.24731 13.5249 6.29347C14.5785 6.51506 15.6964 6.45966 16.7231 6.13783C17.2613 5.96901 17.7739 5.72632 18.2423 5.41768C18.6262 5.81337 18.9576 6.24995 19.273 6.69971C18.9228 6.74588 18.5738 6.79204 18.2235 6.83952C17.6129 6.9213 17.0009 7.00175 16.3903 7.08221C15.8306 7.15607 15.267 7.22466 14.7006 7.22202C14.1611 7.21938 13.6202 7.1442 13.121 6.9358C12.6405 6.73532 12.2084 6.43196 11.791 6.12728C11.7252 6.07848 11.6595 6.031 11.5937 5.9822C11.744 5.79623 11.8943 5.61289 12.042 5.42428C12.2339 5.17895 12.4432 4.9455 12.6741 4.73446C13.0109 4.42715 13.3948 4.1871 13.8175 4.03278C13.7893 4.07103 13.7625 4.10796 13.7356 4.14225H13.737ZM15.3515 5.21193C14.9771 5.24226 14.6107 5.16708 14.247 5.0919C14.0725 5.05629 13.8927 5.01144 13.7142 4.99825C13.6685 4.99562 13.6202 4.99166 13.5706 4.99166C13.6283 4.90065 13.6873 4.80964 13.745 4.71864C13.8323 4.58146 13.9249 4.44825 13.9974 4.30317C14.0564 4.18578 14.145 4.05784 14.1624 3.92726C14.2389 3.9088 14.3168 3.89297 14.3959 3.8811C15.3475 3.73337 16.2869 4.00508 17.0922 4.49309C16.5607 4.82943 15.9876 5.16049 15.3515 5.21193ZM13.4283 5.21456C13.5263 5.24622 13.6377 5.26073 13.7289 5.27919C13.9195 5.31744 14.1101 5.35701 14.2993 5.3979C14.6778 5.48099 15.063 5.55354 15.4522 5.51265C16.1742 5.43615 16.8103 5.07475 17.4156 4.70413C17.6075 4.83998 17.79 4.9877 17.9605 5.14334C17.2291 5.61948 16.3929 5.93076 15.5219 6.04419C15.0522 6.10486 14.5771 6.1075 14.1061 6.05474C13.8712 6.02836 13.6377 5.98352 13.4082 5.9268C13.3156 5.90438 13.1559 5.88987 13.078 5.83316C13.0324 5.80018 13.0633 5.78567 13.0955 5.73423C13.1411 5.66169 13.1881 5.58915 13.2351 5.51661C13.2995 5.41637 13.3639 5.3148 13.4283 5.21456ZM8.50292 3.57774C9.05182 3.10951 9.59133 2.62281 10.1832 2.20602C11.4192 1.33419 12.8794 0.908166 14.3839 0.767038C17.3767 0.487418 20.5305 1.07435 23.0375 2.75603C23.3153 2.94332 23.5851 3.1438 23.8428 3.35483C23.8481 3.36539 23.8575 3.37462 23.8723 3.37857C24.703 4.06575 25.4237 4.87955 25.982 5.79754C25.8183 5.82524 25.6559 5.8503 25.4935 5.87404C24.2977 6.04551 23.0993 6.19323 21.9021 6.35283C21.168 6.45043 20.4339 6.54803 19.6998 6.64563C18.9617 5.49155 17.9444 4.40077 16.6493 3.86263C15.997 3.59093 15.2737 3.45376 14.5664 3.52498C13.8672 3.5962 13.2351 3.86791 12.6915 4.30317C12.3895 4.54585 12.1252 4.82943 11.8863 5.13147C11.7037 5.36229 11.5561 5.60366 11.4219 5.8569C11.1414 5.65114 10.8583 5.44934 10.5576 5.27524C10.1268 5.02463 9.6638 4.82283 9.18603 4.67379C8.63712 4.50233 8.06272 4.40604 7.48697 4.39285C7.85336 4.15808 8.18351 3.85472 8.50426 3.5817L8.50292 3.57774ZM25.4385 3.73733C25.9633 3.87187 26.4826 4.03937 26.9792 4.25568C27.465 4.46804 27.9334 4.72919 28.3615 5.04046C27.7549 5.38075 27.0799 5.58255 26.3941 5.72105C25.9257 4.92176 25.3432 4.20292 24.6762 3.57246C24.9312 3.6239 25.1875 3.67402 25.4385 3.73865V3.73733ZM31.565 13.2497C31.5503 12.7973 31.5234 12.3449 31.4832 11.8924C31.3866 10.7832 31.2403 9.66737 30.9893 8.58055C30.7612 7.58737 30.3948 6.643 29.7237 5.85558C29.1077 5.13147 28.3105 4.57091 27.4436 4.17259C26.8879 3.91803 26.3041 3.72414 25.7096 3.57642C25.409 3.50256 25.1057 3.43397 24.7997 3.38517C24.6695 3.36407 24.538 3.34296 24.4065 3.3245C23.0778 2.15194 21.4485 1.30385 19.7226 0.82771C18.1766 0.401687 16.55 0.248687 14.9489 0.334419C13.4122 0.416195 11.85 0.732746 10.5174 1.51885C9.80741 1.93827 9.17932 2.47509 8.56465 3.0185C8.25597 3.29021 7.94864 3.56455 7.63057 3.8257C7.4051 4.01036 7.17829 4.19765 6.96893 4.40077C6.74749 4.41659 6.52739 4.44297 6.30997 4.48518C5.3571 4.67247 4.50623 5.16181 3.85801 5.87272C3.2165 6.57573 2.76691 7.43833 2.49044 8.33786C2.32268 8.87863 2.218 9.43523 2.14419 9.99579C2.06903 10.5643 2.00327 11.1512 2.01669 11.7249C2.02072 11.9254 2.03145 12.118 2.05159 12.3132C1.96301 12.362 1.87712 12.4161 1.79525 12.4741C0.411575 13.4765 0.233079 15.2677 0.343128 16.8267C0.465257 18.5374 0.8813 20.2151 1.45168 21.8321C1.91604 23.1498 2.47165 24.441 3.10511 25.6901C3.44868 26.4551 3.82983 27.2095 4.27942 27.9191C4.70754 28.5957 5.22424 29.2341 5.90199 29.6826C6.28716 29.9371 6.72333 30.1257 7.17829 30.2154C7.69633 31.0952 8.50829 31.7942 9.34305 32.3772C10.3617 33.0881 11.4998 33.6144 12.6083 34.1749C13.1841 34.4664 13.7571 34.7671 14.3114 35.0956C14.8804 35.4319 15.4347 35.7906 16.0024 36.1296C16.6117 36.4937 17.2519 36.8485 17.9216 37.1202C19.1174 37.7664 20.6003 37.8535 21.9021 37.413C22.7517 37.1254 23.5113 36.6229 24.1058 35.9621C24.7111 35.2881 25.1486 34.4954 25.5821 33.7093C26.0438 32.8718 26.5444 32.0751 27.1228 31.3101C27.72 30.5214 28.3548 29.7577 28.9118 28.94C29.4406 28.1644 29.9009 27.3309 30.18 26.4353C30.4578 25.545 30.5048 24.6362 30.3652 23.7182C30.0982 21.964 29.2205 20.2889 29.3063 18.4872C29.3157 18.2854 29.3412 18.0876 29.3802 17.8897C30.1049 17.593 30.7585 17.1643 31.1759 16.4758C31.7583 15.513 31.7597 14.3206 31.5624 13.2457L31.565 13.2497Z" fill="#010101"/>
<path d="M20.2394 38C19.3751 38 18.5229 37.7995 17.7874 37.4052C17.0547 37.1071 16.3622 36.7114 15.8414 36.4001C15.573 36.2392 15.3073 36.0756 15.0416 35.9108C14.7503 35.7301 14.4497 35.5441 14.1518 35.3674C13.5653 35.0205 12.9707 34.7118 12.4661 34.4573C12.2782 34.3623 12.089 34.2674 11.8984 34.1737C10.9778 33.7147 10.0262 33.2399 9.16194 32.6371C8.14331 31.9262 7.44544 31.243 6.9784 30.4965C6.54625 30.3936 6.11679 30.205 5.72625 29.9464C5.09279 29.527 4.54791 28.9374 4.01108 28.0894C3.60175 27.4417 3.22194 26.7229 2.81798 25.826C2.17781 24.5651 1.61683 23.2567 1.15247 21.9377C0.50962 20.1163 0.141892 18.453 0.0278157 16.8518C-0.130549 14.6241 0.386151 13.1113 1.60743 12.2262C1.64367 12.1999 1.6799 12.1748 1.71882 12.1497C1.70943 12.0218 1.70272 11.8846 1.70004 11.733C1.68662 11.1394 1.75506 10.5287 1.83021 9.95764C1.91611 9.31135 2.03287 8.75211 2.18855 8.24959C2.49723 7.25114 2.99245 6.3582 3.62457 5.66575C4.32915 4.89416 5.23773 4.37976 6.24965 4.1806C6.43486 4.14367 6.62678 4.11729 6.83211 4.09883C7.02806 3.91681 7.23205 3.7493 7.42933 3.58575C7.71653 3.34966 8.00239 3.09642 8.27886 2.85241L8.35402 2.78646C8.98881 2.22591 9.61959 1.68645 10.355 1.25252C11.5911 0.523132 13.0875 0.120849 14.9328 0.0232462C16.6292 -0.066443 18.2692 0.103703 19.8099 0.528407C21.5895 1.01906 23.2255 1.8843 24.5488 3.03047C24.6266 3.04234 24.7045 3.05421 24.781 3.0674L24.8507 3.07795C25.1259 3.12148 25.4144 3.18215 25.7875 3.27448C26.4357 3.43539 27.0383 3.64247 27.5778 3.89043C28.5294 4.32701 29.3561 4.93769 29.9667 5.6552C30.5975 6.39645 31.0202 7.30389 31.2994 8.51074C31.5249 9.48809 31.6872 10.5855 31.7986 11.8649C31.8389 12.3212 31.8657 12.7763 31.8805 13.2155C32.1315 14.6004 31.9865 15.7518 31.451 16.6382C31.0712 17.2647 30.4874 17.7474 29.6674 18.1114C29.6473 18.246 29.6339 18.3765 29.6272 18.5045C29.5775 19.5557 29.8701 20.5568 30.1788 21.6159C30.3734 22.2833 30.576 22.9731 30.682 23.6748C30.8324 24.6693 30.7666 25.6295 30.4861 26.529C30.2271 27.3573 29.799 28.2041 29.1776 29.1155C28.7964 29.6747 28.3764 30.2129 27.9697 30.7339C27.7711 30.9871 27.5738 31.2417 27.3792 31.4989C26.8464 32.2032 26.3498 32.9761 25.8627 33.8611C25.4265 34.6525 24.9756 35.4689 24.3461 36.1706C23.714 36.8736 22.9061 37.4065 22.0082 37.7098C21.4365 37.9037 20.8353 37.9987 20.2394 37.9987V38ZM8.17687 30.5584C8.72175 31.1177 9.36057 31.6176 10.0839 32.0502C10.8489 32.5065 11.6689 32.9049 12.4621 33.29C12.756 33.4325 13.0499 33.5749 13.3425 33.7213C14.1182 34.1091 14.859 34.5654 15.5744 35.0073C15.9099 35.2144 16.2561 35.428 16.5997 35.6312C17.821 36.3513 18.802 36.743 19.7791 36.9C20.2568 36.9765 20.7333 36.9739 21.1963 36.8921C21.6137 36.7879 22.0176 36.627 22.3961 36.4146C23.0591 36.0427 23.6241 35.494 24.126 34.7369C24.2388 34.5654 24.3475 34.3887 24.4535 34.2093C23.7019 35.2223 22.9651 35.8844 22.1384 36.292C21.1399 36.7826 20.0354 36.8578 19.0275 36.5017C18.0652 36.1627 17.0305 35.3885 17.0117 34.2331C17.0023 33.6184 17.307 33.0684 17.5727 32.6595C17.6975 32.4683 17.8304 32.281 17.9579 32.099C18.1122 31.88 18.2719 31.6532 18.4142 31.4263C18.7014 30.962 18.8597 30.5624 18.9094 30.1667C18.9228 30.0652 18.9295 29.9623 18.9322 29.8581C18.8732 29.188 18.5229 28.5114 17.97 27.9997C17.2224 27.3072 16.2266 26.8917 15.2643 26.4895C15.114 26.4261 14.9651 26.3642 14.8161 26.3008C13.682 25.8155 12.4044 25.2087 11.6018 24.143C11.1804 23.5838 10.9536 22.9494 10.963 22.3598C10.9724 21.7069 11.2958 21.1042 11.8501 20.7058C12.3655 20.3365 13.011 20.1967 13.5156 20.1176C13.9276 20.0529 14.3477 20.0002 14.753 19.9501C15.0147 19.9171 15.2778 19.8854 15.5381 19.8498C17.0037 19.648 18.496 19.4146 19.9737 19.1561C21.411 18.9054 22.8752 18.6232 24.326 18.3198C25.0413 18.1695 25.7687 18.0112 26.4908 17.8476L26.8263 17.7725C27.3483 17.6551 27.8892 17.5351 28.4059 17.3847C29.0393 17.2014 29.5091 16.993 29.8835 16.7278C30.2714 16.4535 30.572 16.0512 30.7304 15.5949C30.7854 15.4366 30.827 15.2704 30.8579 15.0897C30.8391 14.9182 30.8431 14.752 30.8471 14.5898C30.8485 14.5199 30.8511 14.45 30.8498 14.3801C30.8485 14.0767 30.8417 13.7668 30.8297 13.4568C30.8028 12.7763 30.7639 12.1722 30.7102 11.6116C30.5868 10.3362 30.4311 9.37466 30.2069 8.49491C29.9385 7.44107 29.552 6.64178 29.0273 6.05484C28.9132 5.9269 28.7897 5.80292 28.6528 5.68026C28.4904 5.78577 28.3227 5.88074 28.1536 5.96383C27.249 6.40964 26.2371 6.54022 25.2601 6.66684L25.0105 6.69981L17.7418 7.65606C17.5754 7.67848 17.409 7.7009 17.2426 7.72332C16.8279 7.77872 16.3997 7.83675 15.977 7.88555C15.4657 7.94491 14.8617 8.0003 14.2497 7.95018C13.6471 7.90138 13.0862 7.75234 12.5829 7.50833C12.1145 7.28147 11.7079 6.98998 11.2623 6.66156L11.1871 6.60617C10.8087 6.32655 10.4517 6.06276 10.0598 5.84645C9.66388 5.6275 9.24113 5.4534 8.80361 5.33073C7.88295 5.07222 6.969 5.05375 6.16108 5.27929C5.3451 5.50616 4.62038 5.99944 4.06879 6.70641C3.55344 7.36588 3.17631 8.21925 2.9495 9.24408C2.84214 9.72946 2.7643 10.2702 2.71062 10.8981C2.70256 10.9957 2.69451 11.0946 2.6878 11.1922C2.67304 11.3795 2.65828 11.5694 2.63949 11.7607C3.10384 11.6538 3.58699 11.6631 4.02182 11.7923C4.7519 12.0099 5.32497 12.5718 5.7249 13.4608C6.04566 14.173 6.29528 14.9235 6.53686 15.6476L6.62946 15.9233C6.93008 16.8215 7.21594 17.7157 7.49241 18.5797C8.11245 20.5185 8.62646 22.1514 9.11632 23.8238C9.39413 24.7695 9.63838 25.644 9.86519 26.4974C9.88532 26.5739 9.9068 26.6517 9.92827 26.7308C10.1296 27.4655 10.3577 28.2977 10.0853 29.0904C9.81956 29.8634 9.09216 30.4239 8.18492 30.5558C8.18223 30.5558 8.18089 30.5558 8.17821 30.5558L8.17687 30.5584ZM19.975 35.6457C20.6984 35.7314 21.4647 35.5164 22.1559 35.0297C22.9544 34.4678 23.5422 33.629 24.0294 32.8864C25.1017 31.2549 26.3163 29.407 26.9242 27.3916C27.2007 26.4776 27.394 25.4936 27.5161 24.3818C27.5711 23.8885 27.6141 23.3794 27.649 22.8241C27.6651 22.5682 27.6785 22.311 27.6892 22.0551C27.6919 22.0076 27.6919 21.9602 27.6933 21.9114C27.6946 21.8151 27.6973 21.7148 27.7067 21.612C27.708 21.5974 27.7107 21.5816 27.7134 21.5671C27.7107 21.3205 27.708 21.0751 27.7026 20.8285L27.6986 20.6531C27.6892 20.2218 27.6785 19.776 27.6637 19.3394C27.657 19.1363 27.649 18.9331 27.6382 18.73C26.9981 18.8857 26.3163 19.0387 25.5352 19.2049C25.5486 19.3222 25.558 19.4264 25.562 19.5267C25.5781 19.8485 25.554 20.1479 25.4896 20.4143C25.3621 20.9419 25.0722 21.3772 24.6709 21.641C24.2401 21.9245 23.667 21.9826 23.2121 21.7887C22.7826 21.6054 22.4807 21.2057 22.3357 20.632C22.2767 20.3972 22.2404 20.1413 22.227 19.8749C21.3359 20.045 20.4595 20.2046 19.6153 20.3484C18.1243 20.6016 16.6225 20.8298 15.1543 21.025C14.9838 21.0474 14.8107 21.0685 14.6389 21.0883C14.5195 21.1028 14.3974 21.116 14.2766 21.1319C14.345 21.1411 14.4148 21.1503 14.4859 21.1609C15.3811 21.2914 16.2749 21.5394 17.1446 21.8982C18.7027 22.5405 20.1092 23.4651 21.2137 24.573C21.8338 25.1942 22.325 25.8511 22.6726 26.5224C23.0618 27.2729 23.306 28.0986 23.4013 28.9783C23.5731 30.5664 23.145 32.2322 22.227 33.5485C21.7949 34.1671 21.2782 34.7092 20.6876 35.159C20.4836 35.3146 20.2434 35.4874 19.9723 35.6457H19.975ZM19.6502 31.3947C19.5751 31.5609 19.4892 31.7257 19.3939 31.884C19.2288 32.1597 19.0423 32.4221 18.8624 32.6767C18.7645 32.8165 18.6651 32.955 18.5699 33.0961C18.3041 33.4892 18.0679 33.8743 18.0881 34.2634C18.1068 34.6156 18.3967 34.9136 18.5873 35.0719C18.7175 34.9915 18.8477 34.9136 18.9765 34.8385C19.3845 34.5971 19.7683 34.3676 20.1132 34.0761C20.6689 33.6039 21.1252 33.0539 21.4687 32.4406C22.125 31.272 22.3424 29.8264 22.0673 28.4745C21.8002 27.1621 21.0728 25.9658 19.9066 24.9159C18.8235 23.9426 17.5204 23.163 16.1394 22.6645C15.4214 22.4046 14.7007 22.2266 13.9988 22.1343C13.3747 22.0525 12.7372 22.0274 12.1749 22.0182C12.0018 22.431 12.1803 22.8874 12.2742 23.0786C12.4849 23.5113 12.8352 23.8951 13.3438 24.2512C14.0323 24.7339 14.8013 25.0518 15.616 25.3868C15.977 25.5359 16.3501 25.6888 16.7111 25.8577C17.5875 26.2652 18.2357 26.6754 18.747 27.145C19.0933 27.4352 19.3885 27.8071 19.6032 28.2213L19.614 28.241C19.6261 28.2608 19.6368 28.2806 19.6475 28.3017C19.9616 28.9124 20.1106 29.5534 20.069 30.106C20.0341 30.5716 19.8891 31.0161 19.6489 31.396L19.6502 31.3947ZM28.6797 21.1714C28.685 21.1859 28.6891 21.2004 28.6931 21.2163L28.7092 21.2835C28.7387 21.4049 28.7709 21.5407 28.7723 21.6911C28.7723 21.7847 28.7709 21.8797 28.7669 21.9747L28.7642 22.0762C28.7199 23.8977 28.5643 26.2784 27.7375 28.522C27.5134 29.1313 27.2289 29.7526 26.8625 30.4265C26.9323 30.3355 27.0021 30.2458 27.0719 30.1562C27.6557 29.403 28.2583 28.6235 28.7374 27.7926C29.2353 26.9274 29.5279 26.1373 29.6312 25.3776C29.7278 24.6746 29.6607 23.9162 29.4138 22.9164C29.3292 22.5748 29.2299 22.2239 29.1346 21.8837C28.9669 21.2888 28.7964 20.6834 28.685 20.0688C28.6891 20.3458 28.6891 20.6043 28.685 20.8549C28.685 20.9446 28.6824 21.0329 28.6797 21.1226V21.1727V21.1714ZM4.40297 26.8865C4.96261 27.8862 5.7598 29.0773 6.98242 29.4597C7.63601 29.6642 8.28021 29.5877 8.7043 29.2553C9.10961 28.9388 9.21563 28.4178 9.03713 27.6132C8.88682 26.9379 8.69088 26.2547 8.5003 25.5939L8.3822 25.181C8.16076 24.4015 7.91919 23.5877 7.64675 22.6961C7.25487 21.4141 6.83882 20.1149 6.4362 18.8593C6.31139 18.4702 6.18658 18.0811 6.06177 17.6907C5.81751 16.927 5.54104 16.0605 5.24713 15.219C5.11561 14.8431 4.98006 14.4526 4.8284 14.0794C4.72775 13.8314 4.58683 13.5135 4.37881 13.2577C4.03927 12.8369 3.47157 12.6602 2.89851 12.796C2.36705 12.9213 1.89598 13.2999 1.57254 13.8604C1.26252 14.3959 1.10818 15.0673 1.09879 15.9114C1.09074 16.6236 1.16187 17.4005 1.3162 18.2882C1.48262 19.2484 1.73896 20.235 2.09997 21.3046C2.15768 21.4444 2.23015 21.6278 2.29323 21.8164C2.34289 21.9654 2.39389 22.1158 2.44354 22.2662C2.52004 22.4693 2.60325 22.6829 2.68914 22.894C2.975 23.6049 3.29039 24.3409 3.65275 25.1468C3.87687 25.6466 4.09429 26.1584 4.30365 26.6517L4.40297 26.8851V26.8865ZM23.145 19.6981C23.149 19.7522 23.153 19.8063 23.1571 19.8617C23.1718 20.074 23.204 20.2719 23.2564 20.4499C23.3409 20.7401 23.4724 20.9103 23.6456 20.9538C23.6925 20.9657 23.7409 20.9709 23.7905 20.9683C23.7301 20.8601 23.6831 20.7322 23.6482 20.5858C23.6066 20.4104 23.5811 20.235 23.5556 20.0648C23.5463 20.0002 23.5355 19.9342 23.5248 19.8696L23.4859 19.6296C23.3718 19.652 23.259 19.6757 23.145 19.6981ZM24.4038 19.4423C24.4401 19.6955 24.4763 19.9487 24.5125 20.202L24.5166 20.2297C24.5166 20.2297 24.5166 20.2389 24.5179 20.2429C24.5394 20.1624 24.5528 20.0767 24.5609 19.9883C24.5756 19.8182 24.5716 19.6296 24.5488 19.4119C24.5005 19.4225 24.4522 19.4317 24.4038 19.4423ZM12.0461 5.92426C12.4339 6.20652 12.8204 6.47031 13.2459 6.64837C13.6592 6.82116 14.137 6.90689 14.7034 6.90953C15.2456 6.9148 15.7904 6.84622 16.3487 6.77235L18.7108 6.45844C18.5283 6.21575 18.3578 6.00736 18.1887 5.81875C17.7606 6.07463 17.3016 6.28038 16.8185 6.43206C15.7314 6.77367 14.5691 6.83039 13.4579 6.59561C13.4244 6.58902 13.3881 6.5811 13.3492 6.57451C13.1117 6.52967 12.8164 6.47295 12.607 6.29357C12.1762 5.92295 12.4957 5.45076 12.6312 5.24896C12.6473 5.22522 12.6621 5.20411 12.6755 5.18169L12.7023 5.1408C12.5628 5.28325 12.4259 5.44021 12.293 5.61167C12.2111 5.71587 12.1293 5.81875 12.0447 5.92163L12.0461 5.92426ZM14.9396 3.1927C15.5408 3.1927 16.1676 3.32196 16.7715 3.57388C17.9149 4.05002 18.9778 4.99308 19.8569 6.3094L21.8593 6.04429C22.2377 5.99417 22.6175 5.94537 22.996 5.89525C23.7999 5.79105 24.632 5.68289 25.448 5.56683C25.4507 5.56683 25.4533 5.56683 25.456 5.56683C24.9729 4.85986 24.3824 4.21358 23.6939 3.64115C23.6644 3.62268 23.6375 3.60026 23.6134 3.5752C23.3664 3.37472 23.1128 3.18611 22.8578 3.01464C20.5575 1.47146 17.5593 0.784286 14.4121 1.07973C12.8151 1.23009 11.4542 1.69437 10.3671 2.46068C9.90008 2.79042 9.45452 3.17424 9.02372 3.54618C8.91903 3.63587 8.81435 3.72688 8.70967 3.81525C8.6533 3.86405 8.5956 3.91285 8.53789 3.96297C8.46542 4.02628 8.3916 4.08959 8.31644 4.1529C8.63988 4.20302 8.96198 4.27689 9.2787 4.37581C9.78332 4.53276 10.2678 4.74512 10.7161 5.00627C10.9268 5.12893 11.1294 5.26479 11.3173 5.39668C11.4193 5.22917 11.5227 5.08013 11.6327 4.94032C11.9132 4.58552 12.1923 4.29799 12.4876 4.0619C13.0929 3.5752 13.7813 3.29031 14.5302 3.21513C14.6644 3.20194 14.8 3.19534 14.9369 3.19534L14.9396 3.1927ZM13.5331 5.63541C13.7424 5.68553 13.9464 5.72115 14.1437 5.74357C14.2994 5.76071 14.4551 5.77259 14.6108 5.77654C14.4779 5.75412 14.3517 5.72642 14.2296 5.70004C14.0417 5.65915 13.8538 5.61959 13.6659 5.58266C13.6431 5.5787 13.619 5.57342 13.5935 5.56946C13.5881 5.56946 13.5827 5.56815 13.5774 5.56683L13.5331 5.63541ZM25.6251 4.1107C25.9687 4.50902 26.2787 4.92977 26.5498 5.36898C27.0007 5.26742 27.3899 5.1474 27.7362 4.99968C27.4584 4.82953 27.1618 4.67653 26.8504 4.54068C26.4787 4.37845 26.0761 4.23732 25.6251 4.1107ZM17.3969 5.08013C17.2573 5.16323 17.1164 5.245 16.9715 5.3215C17.1258 5.25423 17.2761 5.18037 17.4237 5.09992C17.4157 5.09332 17.4063 5.08673 17.3982 5.08013H17.3969ZM14.1048 4.7438C14.1383 4.75039 14.1719 4.75831 14.2041 4.7649L14.3235 4.78996C14.6711 4.86118 14.9999 4.92845 15.3247 4.90207C15.7206 4.87042 16.0978 4.7095 16.4574 4.51034C15.9139 4.25974 15.212 4.06981 14.4443 4.18984C14.4323 4.19115 14.4202 4.19379 14.4081 4.19511C14.3813 4.2571 14.349 4.31382 14.3222 4.36394C14.3074 4.39032 14.2927 4.4167 14.2806 4.44176C14.2269 4.54991 14.1652 4.64883 14.1034 4.7438H14.1048Z" fill="#010101"/>
</svg>
