<svg width="39" height="39" viewBox="0 0 39 39" fill="none" xmlns="http://www.w3.org/2000/svg">
<path d="M17 5H31.9822C33.0967 5 34 5.85185 34 6.90266V22.0973C34 23.1481 33.0967 24 31.9822 24H19.7347" stroke="white" stroke-width="3" stroke-linecap="round" stroke-linejoin="round"/>
<path d="M8.77101 11.1458C11.4642 11.1458 13.6475 8.96253 13.6475 6.2693C13.6475 3.5761 11.4642 1.39282 8.77101 1.39282C6.07781 1.39282 3.89453 3.5761 3.89453 6.2693C3.89453 8.96253 6.07781 11.1458 8.77101 11.1458Z" fill="white"/>
<path d="M25.0714 15.008C25.0714 13.4272 23.7899 12.1458 22.2092 12.1458H8.77199C4.6966 12.1458 1.39283 15.4495 1.39282 19.5249V26.0743H4.5553L5.60947 37.2172H11.9345L14.3638 17.8702H22.2092C23.7899 17.8702 25.0714 16.5887 25.0714 15.008Z" fill="white"/>
</svg>
