<svg width="37" height="30" viewBox="0 0 37 30" fill="none" xmlns="http://www.w3.org/2000/svg">
<path d="M7.11491 3.54251L4.52588 21.7363C4.32605 23.1405 5.30084 24.441 6.70312 24.6411L30.1482 27.9866C31.5505 28.1867 32.8493 27.2106 33.0491 25.8064L35.6381 7.61264C35.838 6.20843 34.8632 4.90788 33.4609 4.70778L10.0158 1.36227C8.6135 1.16218 7.31473 2.1383 7.11491 3.54251Z" fill="white" stroke="#231F20" stroke-miterlimit="10"/>
<path d="M1 8.05423L1 26.4318C1 27.8502 2.14826 29 3.5647 29H27.2467C28.6631 29 29.8114 27.8502 29.8114 26.4318V8.05423C29.8114 6.63583 28.6631 5.48599 27.2467 5.48599H3.5647C2.14826 5.48599 1 6.63583 1 8.05423Z" fill="white" stroke="#231F20" stroke-miterlimit="10"/>
<path d="M10.8053 12.6085L1.71171 25.6876C0.739902 27.0856 1.73886 29.0001 3.43924 29.0001H21.6252C23.3256 29.0001 24.3246 27.0856 23.3528 25.6876L14.2592 12.6085C13.422 11.4043 11.6413 11.4043 10.8041 12.6085H10.8053Z" fill="#DF1F26" stroke="#231F20" stroke-miterlimit="10" stroke-linecap="round"/>
<path d="M18.9189 15.6184L11.3131 26.1157C10.4431 27.3165 11.2995 29 12.7815 29H27.9921C29.4742 29 30.3317 27.3165 29.4606 26.1157L21.8547 15.6184C21.1307 14.6181 19.6419 14.6181 18.9167 15.6184H18.9189Z" fill="#DF1F26" stroke="#231F20" stroke-miterlimit="10" stroke-linecap="round"/>
<path d="M23.355 13.7016C24.9933 13.7016 26.3213 12.3717 26.3213 10.7311C26.3213 9.09064 24.9933 7.76074 23.355 7.76074C21.7167 7.76074 20.3887 9.09064 20.3887 10.7311C20.3887 12.3717 21.7167 13.7016 23.355 13.7016Z" fill="#DF1F26" stroke="#231F20" stroke-miterlimit="10" stroke-linecap="round"/>
</svg>
