<svg width="41" height="33" viewBox="0 0 41 33" fill="none" xmlns="http://www.w3.org/2000/svg">
<path d="M3.26663 0.833252C1.53547 0.833252 0.133301 2.23542 0.133301 3.96659V29.0333C0.133301 30.7644 1.53547 32.1666 3.26663 32.1666H37.7333C39.4645 32.1666 40.8666 30.7644 40.8666 29.0333V3.96659C40.8666 2.23542 39.4645 0.833252 37.7333 0.833252H3.26663ZM33.0333 5.53325C34.7645 5.53325 36.1666 6.93542 36.1666 8.66659C36.1666 10.3978 34.7645 11.7999 33.0333 11.7999C31.3021 11.7999 29.9 10.3978 29.9 8.66659C29.9 6.93542 31.3021 5.53325 33.0333 5.53325ZM11.1 11.803C12.0701 11.803 13.0402 12.1735 13.7804 12.9137L18.8905 18.0237L20.5 19.6333L22.3114 21.4447C22.9726 22.1058 24.0401 22.0997 24.7012 21.4386C25.3639 20.7775 25.3639 19.7023 24.7012 19.0396L22.8959 17.2374L24.0862 16.0471C25.5667 14.5666 27.9666 14.5666 29.4471 16.0471L36.1666 22.7666V27.4666H4.8333V16.4999L8.4195 12.9137C9.15975 12.1735 10.1298 11.803 11.1 11.803Z" fill="white"/>
</svg>
