<svg width="36" height="34" viewBox="0 0 36 34" fill="none" xmlns="http://www.w3.org/2000/svg">
<path d="M31.622 7.06497L14.6058 2.02983C13.2924 1.64121 11.907 2.3716 11.5112 3.6612L4.89426 25.2224C4.4985 26.512 5.24233 27.8725 6.55565 28.2611L23.5719 33.2962C24.8852 33.6849 26.2707 32.9545 26.6664 31.6649L33.2834 10.1037C33.6791 8.81406 32.9353 7.45359 31.622 7.06497Z" fill="white" stroke="#231F20" stroke-miterlimit="10"/>
<path d="M21.2556 1H3.48362C2.11195 1 1 2.09187 1 3.43875V25.9577C1 27.3046 2.11195 28.3964 3.48362 28.3964H21.2556C22.6273 28.3964 23.7393 27.3046 23.7393 25.9577V3.43875C23.7393 2.09187 22.6273 1 21.2556 1Z" fill="white" stroke="#231F20" stroke-miterlimit="10"/>
<path d="M12.3685 10.2279C13.9011 10.2279 15.1436 9.0079 15.1436 7.50298C15.1436 5.99806 13.9011 4.77808 12.3685 4.77808C10.8359 4.77808 9.59351 5.99806 9.59351 7.50298C9.59351 9.0079 10.8359 10.2279 12.3685 10.2279Z" fill="#DF1F26" stroke="#231F20" stroke-miterlimit="10"/>
<path d="M12.3686 14.6988H7.93823C7.93823 12.3117 9.93871 10.3484 12.3686 10.3484C14.7986 10.3484 16.7991 12.3127 16.7991 14.6988H12.3686Z" fill="#DF1F26" stroke="#231F20" stroke-miterlimit="10"/>
<path d="M4.78735 17.6626H20.9632" stroke="#231F20" stroke-miterlimit="10" stroke-linecap="round"/>
<path d="M4.78735 20.6272H20.9632" stroke="#231F20" stroke-miterlimit="10" stroke-linecap="round"/>
<path d="M4.78735 23.5911H15.1447" stroke="#231F20" stroke-miterlimit="10" stroke-linecap="round"/>
<path d="M26.87 8.37956L22.9111 7.04028L18.1924 20.4893L22.1512 21.8286L26.87 8.37956Z" fill="#DF1F26" stroke="#231F20" stroke-miterlimit="10" stroke-linecap="round"/>
<path d="M25.0138 4.34968L26.9011 4.98813C27.4728 5.18156 27.777 5.7942 27.58 6.35563L26.8699 8.37964L22.911 7.04037L23.6212 5.01636C23.8182 4.45492 24.4421 4.15625 25.0138 4.34968Z" fill="white" stroke="#231F20" stroke-miterlimit="10" stroke-linecap="round"/>
<path d="M19.2529 24.5365C18.8563 24.5365 18.5288 24.2568 18.4729 23.8727L18.0445 20.9155C18.0226 20.767 18.0818 20.6185 18.199 20.5228C18.279 20.4583 18.3776 20.4238 18.4784 20.4238C18.5266 20.4238 18.5748 20.4314 18.6208 20.4475L21.8275 21.5329C21.9721 21.5813 22.0795 21.7008 22.1123 21.8471C22.1452 21.9934 22.0981 22.1461 21.9885 22.2494L19.7963 24.3202C19.6484 24.459 19.4556 24.5365 19.2529 24.5365Z" fill="white"/>
<path d="M18.4784 20.8552L21.6851 21.9407L19.4929 24.0115C19.4228 24.0771 19.3373 24.1073 19.2529 24.1073C19.0897 24.1073 18.933 23.9954 18.9067 23.8136L18.4784 20.8563M18.4784 19.9946C18.2779 19.9946 18.0796 20.0624 17.9208 20.1915C17.6852 20.3819 17.568 20.6799 17.6107 20.9768L18.0391 23.9341C18.1256 24.5333 18.6361 24.9679 19.2529 24.9679C19.5696 24.9679 19.8708 24.8485 20.0998 24.6322L22.292 22.5614C22.5122 22.3538 22.6064 22.0483 22.5407 21.7557C22.475 21.463 22.2591 21.2253 21.9699 21.1274L18.7632 20.042C18.6701 20.0108 18.5737 19.9946 18.4773 19.9946H18.4784Z" fill="#231F20"/>
</svg>
