<svg width="38" height="38" viewBox="0 0 38 38" fill="none" xmlns="http://www.w3.org/2000/svg">
<g clip-path="url(#clip0_179_4638)">
<path d="M18.2245 19.1034C17.531 19.7494 11.9729 25.1419 11.9729 25.1419L13.4567 26.6049C13.4567 26.6049 18.3949 22.0472 19.1365 21.3579C19.32 21.1881 19.6305 20.8645 20.2047 20.8645H37.0464V18.5322H19.6192C19.1098 18.5328 18.6271 18.7329 18.2245 19.1034ZM28.2025 6.42626C30.1773 6.42626 31.2549 5.05886 31.2549 3.37379C31.2548 2.77024 31.0757 2.18027 30.7404 1.67848C30.405 1.1767 29.9283 0.785623 29.3707 0.554708C28.8131 0.323792 28.1995 0.263405 27.6075 0.381181C27.0156 0.498957 26.4718 0.789608 26.0451 1.21638C25.6183 1.64316 25.3276 2.1869 25.2099 2.77885C25.0921 3.3708 25.1525 3.98438 25.3834 4.54201C25.6143 5.09965 26.0054 5.57629 26.5072 5.91168C27.009 6.24707 27.5989 6.42614 28.2025 6.42626ZM23.6769 11.6714H24.7005L23.2007 17.0597H33.2054L31.7044 11.6714H32.728L34.2848 17.0597H36.9294L34.8038 9.90979C34.5229 8.92239 33.2743 7.1732 31.1124 7.1732H25.2925C23.1318 7.1732 21.8844 8.92239 21.6012 9.90979L19.4785 17.0597H22.1231L23.6769 11.6714ZM15.0236 16.7771L12.3369 11.7676C12.3369 11.7676 12.1789 11.5289 11.8862 11.6709C11.6232 11.7979 11.7419 12.0942 11.7419 12.0942L12.6332 13.7953L13.1877 14.8551L12.5483 14.5672C11.4154 14.0565 10.7908 13.8386 10.5402 13.7264C10.4957 13.7056 10.276 13.5851 10.1715 13.3553C9.8746 12.6915 8.60695 9.48289 8.32254 8.77336C8.08207 8.17307 7.48892 7.32045 6.26995 7.01882C4.88236 6.67564 3.48348 7.55082 3.15336 8.94317L1.25989 16.9238C1.09126 17.5674 0.801514 19.3083 0.801514 20.0421L0.813982 35.6304C0.823482 36.9456 1.77289 38.006 3.08686 38.0001C4.39904 37.9959 5.29739 36.9266 5.29323 35.6132L5.29026 22.407L7.3096 13.8838C7.54532 14.4603 7.83745 15.1627 7.93304 15.3313C8.16045 15.7291 8.38489 16.0029 8.84326 16.2184C8.84326 16.2184 11.486 17.3121 12.5091 17.7788C12.8013 17.89 13.1214 17.905 13.4228 17.8215C13.7241 17.7379 13.9908 17.5603 14.184 17.3144L14.3254 17.0217L14.374 17.115C14.374 17.115 14.6751 17.6452 15.1198 17.6695C15.2474 17.2652 15.0242 16.7771 15.0242 16.7771H15.0236ZM10.9386 3.34767C10.9386 3.74856 10.8596 4.14553 10.7062 4.51591C10.5528 4.88629 10.3279 5.22282 10.0445 5.5063C9.76099 5.78977 9.42446 6.01464 9.05408 6.16806C8.6837 6.32147 8.28673 6.40043 7.88584 6.40043C7.48494 6.40043 7.08798 6.32147 6.7176 6.16806C6.34722 6.01464 6.01068 5.78977 5.72721 5.5063C5.44373 5.22282 5.21887 4.88629 5.06545 4.51591C4.91204 4.14553 4.83307 3.74856 4.83308 3.34767C4.84426 2.5454 5.17082 1.77978 5.7421 1.2164C6.31339 0.653025 7.08349 0.33718 7.88584 0.33718C8.68819 0.33718 9.45829 0.653025 10.0296 1.2164C10.6009 1.77978 10.9274 2.5454 10.9386 3.34767Z" fill="white"/>
<path d="M12.3138 23.2672L18.262 17.7311L17.489 16.9016L11.5408 22.4383L12.3138 23.2672Z" fill="white"/>
</g>
<defs>
<clipPath id="clip0_179_4638">
<rect width="38" height="38" fill="white"/>
</clipPath>
</defs>
</svg>
