<svg width="24" height="24" viewBox="0 0 24 24" fill="none" xmlns="http://www.w3.org/2000/svg">
<path d="M19.417 15.713C23.368 10.703 22.301 5.73498 19.463 3.99398C16.781 2.34898 14.44 3.01198 13.034 4.06798L12 4.84198M19.417 15.713C18.469 16.916 17.232 18.12 15.66 19.283C14.115 20.428 13.342 21 12 21C10.658 21 9.88598 20.428 8.33998 19.283C0.221981 13.275 1.01798 6.15298 4.53698 3.99398C7.21898 2.34898 9.55998 3.01198 10.966 4.06798L12 4.84198M19.417 15.713L13.892 9.44498C13.7823 9.32096 13.6322 9.23984 13.4683 9.21604C13.3044 9.19224 13.1374 9.22729 12.997 9.31498L10.811 10.681C10.3823 10.9522 9.86534 11.0471 9.36827 10.9459C8.87121 10.8446 8.43255 10.5551 8.14408 10.1378C7.85562 9.72055 7.73969 9.2079 7.82056 8.70712C7.90143 8.20633 8.17283 7.75623 8.57798 7.45098L12 4.84198" stroke="#636363" stroke-width="1.5" stroke-linecap="round" stroke-linejoin="round"/>
</svg>
