<svg width="32" height="32" viewBox="0 0 32 32" fill="none" xmlns="http://www.w3.org/2000/svg">
<g clip-path="url(#clip0_18_607)">
<path fill-rule="evenodd" clip-rule="evenodd" d="M16 1.66667C14.3203 1.66667 12.7094 2.33393 11.5217 3.52166C10.3339 4.70939 9.66666 6.32029 9.66666 8C9.66666 9.6797 10.3339 11.2906 11.5217 12.4783C12.7094 13.6661 14.3203 14.3333 16 14.3333C17.6797 14.3333 19.2906 13.6661 20.4783 12.4783C21.6661 11.2906 22.3333 9.6797 22.3333 8C22.3333 6.32029 21.6661 4.70939 20.4783 3.52166C19.2906 2.33393 17.6797 1.66667 16 1.66667ZM11.6667 8C11.6667 6.85073 12.1232 5.74853 12.9359 4.93587C13.7485 4.12321 14.8507 3.66667 16 3.66667C17.1493 3.66667 18.2515 4.12321 19.0641 4.93587C19.8768 5.74853 20.3333 6.85073 20.3333 8C20.3333 9.14927 19.8768 10.2515 19.0641 11.0641C18.2515 11.8768 17.1493 12.3333 16 12.3333C14.8507 12.3333 13.7485 11.8768 12.9359 11.0641C12.1232 10.2515 11.6667 9.14927 11.6667 8ZM16 16.3333C12.916 16.3333 10.0733 17.0347 7.96799 18.2187C5.89333 19.3867 4.33333 21.1547 4.33333 23.3333V23.4693C4.33199 25.0187 4.33066 26.9627 6.03599 28.352C6.87466 29.0347 8.04933 29.5213 9.63599 29.8413C11.2253 30.164 13.2987 30.3333 16 30.3333C18.7013 30.3333 20.7733 30.164 22.3653 29.8413C23.952 29.5213 25.1253 29.0347 25.9653 28.352C27.6707 26.9627 27.668 25.0187 27.6667 23.4693V23.3333C27.6667 21.1547 26.1067 19.3867 24.0333 18.2187C21.9267 17.0347 19.0853 16.3333 16 16.3333ZM6.33333 23.3333C6.33333 22.1987 7.16266 20.9667 8.94799 19.9627C10.7027 18.976 13.1933 18.3333 16.0013 18.3333C18.8067 18.3333 21.2973 18.976 23.052 19.9627C24.8387 20.9667 25.6667 22.1987 25.6667 23.3333C25.6667 25.0773 25.6133 26.0587 24.7013 26.8C24.208 27.2027 23.3813 27.596 21.968 27.8813C20.5587 28.1667 18.632 28.3333 16 28.3333C13.368 28.3333 11.44 28.1667 10.032 27.8813C8.61866 27.596 7.79199 27.2027 7.29866 26.8013C6.38666 26.0587 6.33333 25.0773 6.33333 23.3333Z" fill="white"/>
</g>
<defs>
<clipPath id="clip0_18_607">
<rect width="32" height="32" fill="white"/>
</clipPath>
</defs>
</svg>
